<svg xmlns="http://www.w3.org/2000/svg" aria-hidden="true" overflow="hidden" style="position:absolute;width:0;height:0"><defs><symbol id="icon-wordpress" viewBox="0 0 32 32"><title>wordpress</title><path fill="var(--color2, #21759b)" d="M28.625 9.1a14.342 14.342 0 011.757 6.9c0 5.305-2.875 9.941-7.151 12.433l4.393-12.703c.82-2.053 1.093-3.695 1.093-5.152 0-.54-.035-1.04-.093-1.48zm-10.641.139c.863-.04 1.643-.14 1.643-.14.776-.1.685-1.24-.089-1.199 0 0-2.34.18-3.84.18-1.419 0-3.8-.2-3.8-.2-.78-.04-.881 1.14-.1 1.18 0 0 .72.081 1.5.12l2.24 6.14-3.16 9.44L7.139 9.2c.865-.04 1.645-.133 1.645-.133.78-.1.688-1.24-.087-1.195 0 0-2.328.184-3.832.184-.267 0-.584-.011-.92-.02C6.548 4.2 10.98 1.62 16 1.62c3.745 0 7.153 1.429 9.715 3.777-.061-.004-.121-.012-.188-.012-1.413 0-2.416 1.231-2.416 2.552 0 1.187.684 2.191 1.413 3.375.548.96 1.187 2.191 1.187 3.969 0 1.22-.472 2.659-1.095 4.639l-1.433 4.78-5.2-15.48zM16 30.379c-1.412 0-2.775-.204-4.064-.583l4.316-12.541 4.42 12.116c.032.071.067.135.104.199-1.493.524-3.1.812-4.776.812zM1.615 16c0-2.085.448-4.067 1.247-5.853l6.859 18.799c-4.795-2.332-8.104-7.251-8.105-12.945zM16 0C7.18 0 0 7.18 0 16s7.18 16 16 16 16-7.18 16-16S24.82 0 16 0z"/></symbol><symbol id="icon-figma1" viewBox="0 0 32 32"><title>figma1</title><path fill="var(--color9, #f24e1e)" d="M16 16a5.333 5.333 0 1110.666 0A5.333 5.333 0 1116 16zM5.333 26.667a5.333 5.333 0 015.333-5.333h5.333v5.333a5.333 5.333 0 11-10.666 0zM16 0v10.667h5.333a5.333 5.333 0 100-10.666zM5.333 5.333a5.333 5.333 0 005.333 5.333h5.333V-.001h-5.333a5.333 5.333 0 00-5.333 5.333zm0 10.667a5.333 5.333 0 005.333 5.333h5.333V10.666h-5.333a5.333 5.333 0 00-5.333 5.333z"/></symbol><symbol id="icon-css3" viewBox="0 0 32 32"><title>css3</title><path fill="var(--color3, #1572b6)" d="M2 0h28l-2.547 28.751L15.969 32l-11.42-3.251zm22.787 5.884L7.214 5.88l.284 3.496 13.5.003-.34 3.621h-8.853l.32 3.431h8.243l-.488 4.697L16 22.2l-3.941-1.08-.251-2.813h-3.48l.387 5.14 7.287 2.271 7.164-2.04z"/></symbol><symbol id="icon-html5" viewBox="0 0 32 32"><title>html5</title><path fill="var(--color4, #e34f26)" d="M2 0h28l-2.547 28.751L15.969 32 4.55 28.749zm9.375 13l-.309-3.624 13.412.004.307-3.496L7.217 5.88l.931 10.68h12.168l-.435 4.568-3.88 1.072-3.94-1.08-.251-2.813H8.331l.44 5.561L16 25.801l7.172-1.924.992-10.876z"/></symbol><symbol id="icon-adobecreativecloud" viewBox="0 0 32 32"><title>adobecreativecloud</title><path fill="var(--color5, #d41818)" d="M32 15.465v1.071c-.011.059-.023.116-.029.173-.053.467-.089.935-.165 1.397a11.526 11.526 0 01-1.596 4.241l.028-.049a11.883 11.883 0 01-4.793 4.449l-.067.031a10.99 10.99 0 01-3.696 1.119l-.054.005c-.289.035-.58.065-.869.097H9.518c-.057-.011-.113-.027-.171-.032a9.437 9.437 0 01-3.323-.821l.059.024c-2.263-1.007-3.951-2.64-5.055-4.885a9.517 9.517 0 01-.929-3.113l-.005-.047-.095-.803v-1.04c.011-.057.027-.115.031-.173a9.728 9.728 0 01.637-2.966l-.023.066c.955-2.507 2.621-4.368 4.984-5.572A9.468 9.468 0 019.51 7.611l.022-.001a10.864 10.864 0 012.062.101l-.058-.007.022.001a.248.248 0 00.167-.064 11.905 11.905 0 013.21-2.382l.068-.031a11.086 11.086 0 013.712-1.125l.054-.005c.312-.036.623-.067.933-.099h.96c.061.009.125.021.187.028.476.057.953.093 1.424.173 1.546.272 2.925.825 4.142 1.608l-.044-.027a11.928 11.928 0 014.394 4.88l.031.07c.553 1.11.945 2.4 1.102 3.762l.005.054c.035.305.064.611.096.916zM14.107 8.532c.02.027.025.039.033.043.657.329 1.287.717 1.88 1.156.037.027.131.016.176-.013 1.629-1.049 3.396-1.412 5.293-1.069 1.86.335 3.373 1.28 4.529 2.789 1.309 1.707 1.809 3.64 1.448 5.787-.243 1.44-.811 2.733-1.773 3.815-1.76 1.973-3.964 2.789-6.557 2.444-1.596-.213-2.973-.913-4.115-2.085-1.464-1.504-2.939-2.997-4.407-4.497-.196-.2-.413-.36-.695-.396a1.102 1.102 0 00-1.149.633l-.003.007c-.189.4-.165.853.247 1.264 1.636 1.635 3.259 3.283 4.893 4.92.28.28.58.54.899.776 1.195.881 2.541 1.369 4 1.565 1.144.155 2.28.12 3.407-.136 2.149-.492 3.931-1.607 5.333-3.329a9.555 9.555 0 002.096-4.845l.005-.048a9.825 9.825 0 00-.097-3.208l.01.062c-.325-1.693-1.031-3.211-2.16-4.503-2.157-2.461-4.871-3.56-8.099-3.316a8.883 8.883 0 00-3.567 1.076l.046-.023a9.266 9.266 0 00-1.686 1.144l.013-.011zm-.79 17.188a13.724 13.724 0 01-.142-.134l.009.009c-.668-.643-1.341-1.28-2.003-1.932a.534.534 0 00-.404-.183h-.024.001c-.669.016-1.34.019-2-.133-3.281-.753-5.187-4.381-3.977-7.573.953-2.519 3.595-4.051 6.199-3.579 1.167.212 2.192.715 3.032 1.596 1.027 1.077 2.083 2.123 3.12 3.188.235.243.507.353.833.307.421-.061.759-.267.911-.688.149-.413.077-.807-.231-1.125-1.088-1.12-2.151-2.269-3.283-3.343-2.196-2.081-4.784-2.701-7.648-1.816-3.851 1.191-6.105 5.235-5.225 9.225.803 3.636 3.929 6.187 7.588 6.191h3.065c.051 0 .101-.005.179-.009z"/></symbol><symbol id="icon-adobephotoshop" viewBox="0 0 32 32"><title>adobephotoshop</title><path fill="var(--color6, #00c8ff)" d="M0 .4v31.2h32V.4zm1.333 1.333h29.333v28.533H1.333zm6.4 5.974c0-.089.187-.155.299-.155a73.618 73.618 0 013.437-.067c3.696 0 5.133 2.027 5.133 4.621 0 3.387-2.456 4.84-5.469 4.84-.507 0-.68-.023-1.033-.023v5.123c0 .111-.044.155-.153.155H7.888c-.111 0-.153-.04-.153-.151zm2.367 7.082c.307.021.549.021 1.08.021 1.56 0 3.027-.549 3.027-2.661 0-1.693-1.048-2.552-2.829-2.552-.528 0-1.033.021-1.276.044zm11.476-1.584c-1.056 0-1.408.528-1.408.968 0 .484.24.813 1.649 1.54 2.091 1.013 2.749 1.98 2.749 3.409 0 2.133-1.627 3.28-3.827 3.28-1.168 0-2.16-.244-2.733-.573-.087-.044-.107-.109-.107-.22v-1.956c0-.133.064-.177.152-.112a4.91 4.91 0 002.683.792c1.056 0 1.496-.44 1.496-1.035 0-.484-.307-.903-1.649-1.607-1.893-.907-2.685-1.827-2.685-3.369 0-1.716 1.341-3.147 3.673-3.147 1.147 0 1.952.176 2.392.373.109.067.133.176.133.264v1.827c0 .111-.067.177-.2.133-.592-.352-1.467-.573-2.319-.568z"/></symbol><symbol id="icon-sass" viewBox="0 0 32 32"><title>sass</title><path fill="var(--color7, #c69)" d="M16 0c8.836 0 16 7.164 16 16s-7.164 16-16 16S0 24.836 0 16 7.164 0 16 0zm-3.18 21.331c.233.86.208 1.664-.032 2.389l-.087.24c-.032.081-.069.16-.104.235a4.492 4.492 0 01-.74 1.08c-.931 1.012-2.229 1.396-2.787 1.073-.6-.349-.301-1.78.779-2.92 1.161-1.224 2.827-2.012 2.827-2.012v-.004zM26.035 6.849c-.723-2.844-5.436-3.779-9.896-2.193-2.652.943-5.525 2.424-7.591 4.356-2.457 2.295-2.848 4.295-2.687 5.131.569 2.948 4.609 4.876 6.271 6.307v.008c-.489.24-4.075 2.039-4.915 3.9-.9 1.96.14 3.361.82 3.54 2.1.581 4.26-.48 5.42-2.199 1.12-1.681 1.021-3.841.539-4.901.661-.18 1.44-.26 2.44-.139 2.801.32 3.361 2.08 3.24 2.8-.12.719-.697 1.139-.899 1.259-.2.121-.26.16-.241.241.02.12.121.12.28.1.22-.04 1.461-.6 1.521-1.961.06-1.72-1.581-3.639-4.5-3.6-1.2.021-1.961.121-2.5.341a.479.479 0 00-.14-.14c-1.8-1.94-5.14-3.3-5-5.88.04-.94.38-3.419 6.4-6.419 4.94-2.461 8.881-1.78 9.561-.28.977 2.139-2.101 6.12-7.241 6.699-1.96.22-2.98-.539-3.241-.82-.279-.3-.319-.32-.419-.259-.16.08-.06.34 0 .5.16.4.78 1.1 1.861 1.46.939.3 3.24.479 6-.6 3.099-1.199 5.519-4.54 4.819-7.34z"/></symbol><symbol id="icon-bootstrap" viewBox="0 0 32 32"><title>bootstrap</title><path fill="var(--color8, #563d7c)" d="M26.667 0H5.334A5.347 5.347 0 00.001 5.333v21.333c0 2.933 2.4 5.333 5.333 5.333h21.333c2.933 0 5.333-2.4 5.333-5.333V5.333C32 2.4 29.6 0 26.667 0zm-2.916 22.473a4.153 4.153 0 01-1.231 1.645c-.56.453-1.269.827-2.143 1.093-.872.271-1.909.407-3.111.407H8.69V6.951h9.069c1.677 0 3.021.377 4.027 1.147 1.013.773 1.517 1.925 1.517 3.48 0 .94-.229 1.747-.691 2.413-.459.663-1.12 1.181-1.973 1.541v.061c1.139.24 2.02.78 2.6 1.62s.877 1.901.877 3.183c0 .717-.139 1.4-.4 2.037zm-3.702-4.6c-.547-.5-1.315-.744-2.307-.744h-5.763v5.824h5.779c.987 0 1.76-.256 2.307-.773.547-.513.827-1.245.827-2.187-.009-.92-.28-1.632-.827-2.12zm-.8-3.764c.528-.448.787-1.089.787-1.925 0-.939-.233-1.605-.707-1.987-.469-.38-1.147-.577-2.037-.577h-5.333v5.151h5.333c.777 0 1.44-.227 1.957-.661z"/></symbol><symbol id="icon-edit" viewBox="0 0 32 32"><title>javascript</title><path fill="var(--color1, #f7df1e)" d="M0 0h32v32H0zm29.379 24.368c-.233-1.46-1.184-2.687-4.004-3.831-.981-.46-2.072-.78-2.396-1.52-.121-.44-.14-.68-.061-.94.2-.861 1.22-1.12 2.02-.88.52.16 1 .56 1.301 1.2 1.379-.901 1.379-.901 2.34-1.5-.36-.56-.539-.801-.781-1.04-.84-.94-1.959-1.42-3.779-1.379l-.94.119c-.901.22-1.76.7-2.28 1.34-1.52 1.721-1.081 4.721.759 5.961 1.82 1.36 4.481 1.659 4.821 2.94.32 1.56-1.16 2.06-2.621 1.88-1.081-.24-1.68-.781-2.34-1.781l-2.44 1.401c.28.64.6.919 1.08 1.479 2.32 2.341 8.12 2.221 9.161-1.339.039-.12.32-.94.099-2.2zm-11.978-9.66h-2.997c0 2.584-.012 5.152-.012 7.74 0 1.643.084 3.151-.184 3.615-.44.919-1.573.801-2.088.64-.528-.261-.796-.621-1.107-1.14-.084-.14-.147-.261-.169-.261l-2.433 1.5c.407.84 1 1.563 1.765 2.023 1.14.68 2.672.9 4.276.54 1.044-.301 1.944-.921 2.415-1.881.68-1.24.536-2.76.529-4.461.016-2.739 0-5.479 0-8.239z"/></symbol><symbol id="icon-github1" viewBox="0 0 32 32"><title>github1</title><path d="M16 .396c-8.84 0-16 7.164-16 16 0 7.071 4.584 13.067 10.94 15.18.8.151 1.093-.344 1.093-.769 0-.38-.013-1.387-.02-2.72-4.451.965-5.389-2.147-5.389-2.147-.728-1.847-1.78-2.34-1.78-2.34-1.449-.992.112-.972.112-.972 1.607.112 2.451 1.648 2.451 1.648 1.427 2.447 3.745 1.74 4.66 1.331.144-1.035.556-1.74 1.013-2.14-3.553-.4-7.288-1.776-7.288-7.907 0-1.747.62-3.173 1.647-4.293-.18-.404-.72-2.031.14-4.235 0 0 1.34-.429 4.4 1.64 1.28-.356 2.64-.532 4-.54 1.36.008 2.72.184 4 .54 3.04-2.069 4.38-1.64 4.38-1.64.86 2.204.32 3.831.16 4.235 1.02 1.12 1.64 2.547 1.64 4.293 0 6.147-3.74 7.5-7.3 7.893.56.48 1.08 1.461 1.08 2.96 0 2.141-.02 3.861-.02 4.381 0 .42.28.92 1.1.76C27.42 29.455 32 23.455 32 16.395c0-8.836-7.164-16-16-16z"/></symbol><symbol id="icon-visualstudiocode" viewBox="0 0 32 32"><title>visualstudiocode</title><path fill="var(--color10, #007acc)" d="M30.867 3.449L24.28.28a1.984 1.984 0 00-2.273.387L9.394 12.174 3.901 8.003a1.323 1.323 0 00-.805-.271c-.346 0-.661.132-.897.348L.437 9.682c-.269.245-.436.596-.436.987s.167.741.434.984l.001.001L5.2 16.001.436 20.348a1.33 1.33 0 000 1.971l.001.001 1.764 1.601a1.328 1.328 0 001.704.074l-.003.002 5.493-4.171 12.613 11.507a1.982 1.982 0 002.284.381l-.012.005 6.589-3.169A2.003 2.003 0 0032 26.749V5.252c0-.789-.457-1.472-1.122-1.797l-.012-.005zm-6.862 19.815L14.434 16l9.571-7.264z"/></symbol><symbol id="icon-codepen" viewBox="0 0 32 32"><title>codepen</title><path d="M32 10.909l-.024-.116-.023-.067c-.013-.032-.024-.067-.04-.1-.004-.024-.02-.045-.027-.067l-.047-.089-.04-.067-.059-.08-.061-.06-.08-.06-.061-.04-.08-.059-.059-.053-.02-.027L16.772.252a1.367 1.367 0 00-1.523 0L.444 10.135l-.051.053-.067.075-.049.06-.067.08c-.027.023-.04.04-.04.061l-.067.08-.027.08c-.027.013-.027.053-.04.093l-.013.067c-.025.041-.025.081-.025.121v9.996c0 .059.004.12.013.18l.013.061c.007.04.013.08.027.115l.02.067c.013.036.021.071.036.1l.029.067c0 .013.02.053.04.08l.04.053c.02.013.04.053.06.08l.04.053.053.053c.013.017.013.04.04.04l.08.056.053.04.013.019 14.627 9.773c.219.16.5.217.76.217s.52-.08.76-.24l14.877-9.875.069-.077.044-.06.053-.08.04-.067.04-.093.021-.069.04-.103.02-.06.04-.107v-10c0-.067 0-.127-.021-.187l-.019-.06.059.004zm-15.987 8.374l-4.867-3.253 4.867-3.256 4.867 3.253zm-1.378-8.899l-5.964 3.987-4.817-3.221 10.781-7.187zm-8.44 5.644l-3.443 2.307v-4.601zm2.476 1.667l5.964 3.987v6.427L3.854 20.921l4.824-3.223zm8.716 3.986l5.965-3.973 4.817 3.227-10.783 7.187zm8.44-5.64l3.444-2.293v4.608zm-2.474-1.653L17.389 10.4V3.96l10.78 7.187-4.816 3.22z"/></symbol><symbol id="icon-dev-dot-to" viewBox="0 0 32 32"><title>dev-dot-to</title><path d="M9.893 13.4c-.24-.213-.613-.307-1.12-.307H8l.027 3.253.053 3.267.747-.027c.547 0 .84-.093 1.107-.347.32-.32.347-.48.347-2.933 0-2.547-.027-2.613-.387-2.907zM0 6.587v18.827h32V6.587zM11.413 20.4c-.587.773-1.413 1.027-3.373 1.027H6.28V11.374h1.867c2.227 0 2.88.24 3.467 1.2.36.573.387.8.427 3.427.067 2.973-.027 3.64-.627 4.4zm6.787-7.293h-3.293v2.36h2.027v1.707l-.96.053-1 .04v2.36l1.627.04 1.6.053v1.707h-2.133c-2.04 0-2.133-.013-2.493-.4l-.4-.373v-4.213c0-4.027.013-4.24.333-4.64.307-.413.333-.413 2.507-.413h2.187zm6.24 7.266c-.227.573-.853 1.053-1.333 1.053-.24 0-.6-.2-.893-.52-.427-.427-.6-.84-1.093-2.773l-1.2-4.52-.6-2.227h1.013c.533 0 1 .027 1 .067 0 .08 1.547 6.053 1.68 6.44.053.2.427-.933.973-3.067l.88-3.36.987-.053c.533-.027.973 0 .973.053 0 .187-2.227 8.507-2.387 8.907z"/></symbol><symbol id="icon-twitter-with-circle" viewBox="0 0 20 20"><title>twitter-with-circle</title><path d="M10 .4C4.698.4.4 4.698.4 10s4.298 9.6 9.6 9.6 9.6-4.298 9.6-9.6S15.302.4 10 .4zm3.905 7.864c.004.082.005.164.005.244 0 2.5-1.901 5.381-5.379 5.381a5.335 5.335 0 01-2.898-.85c.147.018.298.025.451.025.886 0 1.701-.301 2.348-.809a1.895 1.895 0 01-1.766-1.312 1.9 1.9 0 00.853-.033 1.892 1.892 0 01-1.517-1.854v-.023c.255.141.547.227.857.237a1.89 1.89 0 01-.585-2.526 5.376 5.376 0 003.897 1.977 1.891 1.891 0 013.222-1.725 3.797 3.797 0 001.2-.459 1.9 1.9 0 01-.831 1.047 3.799 3.799 0 001.086-.299 3.834 3.834 0 01-.943.979z"/></symbol><symbol id="icon-linkedin" viewBox="0 0 32 32"><title>linkedin</title><path d="M29 0H3C1.35 0 0 1.35 0 3v26c0 1.65 1.35 3 3 3h26c1.65 0 3-1.35 3-3V3c0-1.65-1.35-3-3-3zM12 26H8V12h4v14zm-2-16c-1.106 0-2-.894-2-2s.894-2 2-2c1.106 0 2 .894 2 2s-.894 2-2 2zm16 16h-4v-8c0-1.106-.894-2-2-2s-2 .894-2 2v8h-4V12h4v2.481C18.825 13.35 20.087 12 21.5 12c2.488 0 4.5 2.238 4.5 5v9z"/></symbol><symbol id="icon-codepen" viewBox="0 0 32 32"><title>codepen</title><path d="M29.555 11.501l-14-9.333a1 1 0 00-1.109 0l-14 9.333a1 1 0 00-.445.832v9.333a1 1 0 00.445.832l14 9.333a.998.998 0 001.11 0l14-9.333a1 1 0 00.445-.832v-9.333a1 1 0 00-.445-.832zM15 20.465L9.803 17 15 13.535 20.197 17 15 20.465zm1-8.667v-6.93l11.197 7.465L22 15.798l-6-4zm-2 0l-6 4-5.197-3.465L14 4.868v6.93zM6.197 17L2 19.798v-5.596L6.197 17zM8 18.202l6 4v6.93L2.803 21.667 8 18.202zm8 4l6-4 5.197 3.465L16 29.132v-6.93zM23.803 17L28 14.202v5.596L23.803 17z"/></symbol></defs></svg>